<svg width="15" height="19" viewBox="0 0 15 19" fill="none" xmlns="http://www.w3.org/2000/svg">
<path d="M11.2983 0.545454H14.9886V11.8807C14.9886 13.1534 14.6847 14.267 14.0767 15.2216C13.4744 16.1761 12.6307 16.9205 11.5455 17.4545C10.4602 17.983 9.19602 18.2472 7.75284 18.2472C6.30398 18.2472 5.03693 17.983 3.9517 17.4545C2.86648 16.9205 2.02273 16.1761 1.42045 15.2216C0.818182 14.267 0.517045 13.1534 0.517045 11.8807V0.545454H4.20739V11.5653C4.20739 12.2301 4.35227 12.821 4.64205 13.3381C4.9375 13.8551 5.35227 14.2614 5.88636 14.5568C6.42045 14.8523 7.04261 15 7.75284 15C8.46875 15 9.09091 14.8523 9.61932 14.5568C10.1534 14.2614 10.5653 13.8551 10.8551 13.3381C11.1506 12.821 11.2983 12.2301 11.2983 11.5653V0.545454Z" fill="black"/>
</svg>
